<?xml version="1.0" standalone="no"?>
<!DOCTYPE svg PUBLIC "-//W3C//DTD SVG 20010904//EN"
 "http://www.w3.org/TR/2001/REC-SVG-20010904/DTD/svg10.dtd">
<svg version="1.0" xmlns="http://www.w3.org/2000/svg"
 width="96.000000pt" height="96.000000pt" viewBox="0 0 96.000000 96.000000"
 preserveAspectRatio="xMidYMid meet">
<metadata>
Created by potrace 1.14, written by Peter Selinger 2001-2017
</metadata>
<g transform="translate(0.000000,96.000000) scale(0.100000,-0.100000)"
fill="#000000" stroke="none">
<path d="M424 825 c51 -79 48 -71 31 -88 -11 -12 -23 -13 -44 -7 -33 9 -41 5
-41 -21 0 -20 4 -24 42 -33 23 -5 30 -2 43 24 19 37 26 38 48 1 14 -24 22 -29
44 -25 37 7 43 12 43 36 0 17 -5 20 -39 16 -47 -4 -68 17 -47 48 39 57 47 74
37 74 -6 0 -21 -16 -33 -35 -13 -19 -25 -35 -28 -35 -3 0 -15 16 -28 35 -12
19 -27 35 -33 35 -7 0 -5 -10 5 -25z m6 -124 c0 -5 -9 -7 -20 -4 -11 3 -20 7
-20 9 0 2 9 4 20 4 11 0 20 -4 20 -9z m133 2 c-7 -2 -19 -2 -25 0 -7 3 -2 5
12 5 14 0 19 -2 13 -5z"/>
<path d="M271 807 c-6 -6 -11 -37 -11 -68 0 -60 17 -82 46 -58 13 11 17 74 8
111 -6 21 -29 29 -43 15z m27 -62 c1 -25 -3 -45 -8 -45 -6 0 -10 20 -10 45 0
59 17 59 18 0z"/>
<path d="M657 806 c-19 -19 -21 -110 -3 -125 29 -24 46 -2 46 59 0 65 -17 91
-43 66z m23 -68 c0 -28 -3 -48 -7 -44 -12 11 -14 96 -3 96 6 0 10 -23 10 -52z"/>
<path d="M163 748 c-4 -8 -8 -510 -4 -615 l1 -23 320 0 c298 0 320 1 321 18 2
71 1 614 -2 616 -13 13 -79 9 -79 -4 0 -6 6 -10 13 -9 42 5 47 0 47 -50 0 -38
-4 -49 -17 -53 -15 -3 -524 -2 -571 1 -9 1 -12 16 -10 54 3 46 6 52 25 52 21
0 45 14 27 16 -49 5 -66 5 -71 -3z m617 -380 l0 -238 -300 0 -300 0 0 238 0
238 300 0 300 -1 0 -237z"/>
<path d="M212 508 l3 -53 50 0 50 0 2 35 c3 63 -3 70 -58 70 l-50 0 3 -52z
m82 5 c-1 -16 -2 -31 -3 -34 0 -3 -14 -6 -31 -7 -28 -1 -30 2 -30 34 0 32 2
34 33 34 30 0 33 -3 31 -27z"/>
<path d="M357 553 c-2 -5 -3 -28 -3 -53 l1 -45 53 -3 52 -3 0 55 0 56 -49 0
c-28 0 -52 -3 -54 -7z m83 -48 c0 -32 -2 -35 -30 -35 -16 0 -31 3 -31 8 -1 4
-2 19 -3 35 -2 24 1 27 31 27 31 0 33 -2 33 -35z"/>
<path d="M500 505 l0 -56 52 3 52 3 1 50 0 50 -52 3 -53 3 0 -56z m86 11 c4
-30 -5 -42 -36 -44 -28 -2 -30 0 -30 33 0 35 1 36 32 33 21 -2 32 -9 34 -22z"/>
<path d="M645 548 c-3 -7 -4 -31 -2 -53 l4 -40 51 -3 52 -3 0 55 0 56 -50 0
c-31 0 -52 -5 -55 -12z m85 -42 c0 -32 -2 -35 -30 -34 -23 1 -32 7 -36 24 -8
32 2 44 37 44 26 0 29 -3 29 -34z"/>
<path d="M212 368 l3 -53 50 0 50 0 0 50 0 50 -53 3 -53 3 3 -53z m83 0 c-1
-30 -5 -33 -33 -34 -30 -1 -32 1 -32 33 0 31 2 33 33 33 31 0 33 -2 32 -32z"/>
<path d="M357 413 c-2 -5 -3 -28 -3 -53 l1 -45 50 0 50 0 3 53 3 52 -50 0
c-27 0 -52 -3 -54 -7z m83 -46 c0 -31 -3 -34 -30 -35 -16 0 -30 2 -31 6 -8 58
-7 62 28 62 31 0 33 -2 33 -33z"/>
<path d="M565 401 c-64 -39 -83 -107 -45 -168 21 -34 66 -63 100 -63 65 0 130
63 130 125 0 43 -35 94 -75 111 -46 19 -74 18 -110 -5z m134 -36 c20 -20 26
-35 26 -71 0 -39 -5 -50 -32 -74 -91 -81 -226 39 -152 134 12 15 31 32 43 37
33 14 88 2 115 -26z"/>
<path d="M575 337 c-4 -10 -5 -21 -1 -24 10 -10 18 4 13 24 -4 17 -4 17 -12 0z"/>
<path d="M665 337 c-4 -10 -5 -21 -1 -24 10 -10 18 4 13 24 -4 17 -4 17 -12 0z"/>
<path d="M654 259 c-4 -7 -22 -9 -48 -5 -38 6 -40 5 -22 -9 11 -8 32 -15 47
-15 29 0 57 24 40 34 -5 4 -13 1 -17 -5z"/>
<path d="M217 274 c-4 -4 -7 -29 -7 -56 l0 -48 49 0 c55 0 60 7 57 70 -1 34
-2 35 -46 38 -25 2 -49 0 -53 -4z m78 -46 c0 -30 -3 -33 -32 -36 -32 -3 -33
-2 -33 32 0 34 2 36 33 36 30 0 33 -2 32 -32z"/>
<path d="M357 273 c-2 -5 -3 -28 -3 -53 l1 -45 50 0 50 0 3 53 3 52 -50 0
c-27 0 -52 -3 -54 -7z m83 -48 c0 -32 -2 -35 -30 -35 -17 0 -31 6 -32 13 -6
54 -5 57 33 57 27 0 29 -3 29 -35z"/>
</g>
</svg>
